<mxfile host="Electron" modified="2024-04-14T17:27:50.930Z" agent="Mozilla/5.0 (Windows NT 10.0; Win64; x64) AppleWebKit/537.36 (KHTML, like Gecko) draw.io/24.2.5 Chrome/120.0.6099.109 Electron/28.1.0 Safari/537.36" etag="J2gPLvKP3LiGVclglkSm" version="24.2.5" type="device">
  <diagram name="Страница — 1" id="wqkzhPny0V2c1Y0xNqJ1">
    <mxGraphModel dx="1020" dy="494" grid="1" gridSize="10" guides="1" tooltips="1" connect="1" arrows="1" fold="1" page="1" pageScale="1" pageWidth="827" pageHeight="1169" math="0" shadow="0">
      <root>
        <mxCell id="0" />
        <mxCell id="1" parent="0" />
        <mxCell id="KXMMiSo6xPN748hezw-T-21" value="" style="image;html=1;image=img/lib/clip_art/computers/Server_Rack_128x128.png" vertex="1" parent="1">
          <mxGeometry x="520" y="160" width="80" height="80" as="geometry" />
        </mxCell>
        <mxCell id="KXMMiSo6xPN748hezw-T-6" value="" style="rounded=1;whiteSpace=wrap;html=1;rotation=90;" vertex="1" parent="1">
          <mxGeometry x="-74.69" y="217.47" width="250" height="60" as="geometry" />
        </mxCell>
        <mxCell id="KXMMiSo6xPN748hezw-T-1" value="" style="sketch=0;points=[[0.015,0.015,0],[0.985,0.015,0],[0.985,0.985,0],[0.015,0.985,0],[0.25,0,0],[0.5,0,0],[0.75,0,0],[1,0.25,0],[1,0.5,0],[1,0.75,0],[0.75,1,0],[0.5,1,0],[0.25,1,0],[0,0.75,0],[0,0.5,0],[0,0.25,0]];verticalLabelPosition=bottom;html=1;verticalAlign=top;aspect=fixed;align=center;pointerEvents=1;shape=mxgraph.cisco19.dns_server;fillColor=#005073;strokeColor=none;" vertex="1" parent="1">
          <mxGeometry x="140" y="167.78" width="60.5" height="110" as="geometry" />
        </mxCell>
        <mxCell id="KXMMiSo6xPN748hezw-T-2" value="" style="points=[[0.03,0.03,0],[0.5,0,0],[0.97,0.03,0],[1,0.4,0],[0.97,0.745,0],[0.5,1,0],[0.03,0.745,0],[0,0.4,0]];verticalLabelPosition=bottom;sketch=0;html=1;verticalAlign=top;aspect=fixed;align=center;pointerEvents=1;shape=mxgraph.cisco19.workstation;fillColor=#005073;strokeColor=none;" vertex="1" parent="1">
          <mxGeometry x="25.310000000000002" y="310" width="50" height="40" as="geometry" />
        </mxCell>
        <mxCell id="KXMMiSo6xPN748hezw-T-3" value="" style="points=[[0.13,0.02,0],[0.5,0,0],[0.87,0.02,0],[0.885,0.4,0],[0.985,0.985,0],[0.5,1,0],[0.015,0.985,0],[0.115,0.4,0]];verticalLabelPosition=bottom;sketch=0;html=1;verticalAlign=top;aspect=fixed;align=center;pointerEvents=1;shape=mxgraph.cisco19.laptop;fillColor=#005073;strokeColor=none;" vertex="1" parent="1">
          <mxGeometry x="25.310000000000002" y="260" width="50" height="35" as="geometry" />
        </mxCell>
        <mxCell id="KXMMiSo6xPN748hezw-T-4" value="" style="sketch=0;points=[[0.015,0.015,0],[0.985,0.015,0],[0.985,0.985,0],[0.015,0.985,0],[0.25,0,0],[0.5,0,0],[0.75,0,0],[1,0.25,0],[1,0.5,0],[1,0.75,0],[0.75,1,0],[0.5,1,0],[0.25,1,0],[0,0.75,0],[0,0.5,0],[0,0.25,0]];verticalLabelPosition=bottom;html=1;verticalAlign=top;aspect=fixed;align=center;pointerEvents=1;shape=mxgraph.cisco19.handheld;fillColor=#005073;strokeColor=none;" vertex="1" parent="1">
          <mxGeometry x="31.560000000000002" y="200" width="37.5" height="50" as="geometry" />
        </mxCell>
        <mxCell id="KXMMiSo6xPN748hezw-T-5" value="" style="sketch=0;points=[[0.015,0.015,0],[0.985,0.015,0],[0.985,0.985,0],[0.015,0.985,0],[0.25,0,0],[0.5,0,0],[0.75,0,0],[1,0.25,0],[1,0.5,0],[1,0.75,0],[0.75,1,0],[0.5,1,0],[0.25,1,0],[0,0.75,0],[0,0.5,0],[0,0.25,0]];verticalLabelPosition=bottom;html=1;verticalAlign=top;aspect=fixed;align=center;pointerEvents=1;shape=mxgraph.cisco19.cell_phone;fillColor=#005073;strokeColor=none;" vertex="1" parent="1">
          <mxGeometry x="37.81" y="140" width="25" height="50" as="geometry" />
        </mxCell>
        <mxCell id="KXMMiSo6xPN748hezw-T-7" value="&lt;span style=&quot;font-size: 14px;&quot;&gt;Clients&lt;/span&gt;" style="text;html=1;align=center;verticalAlign=middle;whiteSpace=wrap;rounded=0;" vertex="1" parent="1">
          <mxGeometry x="16.56" y="380" width="67.5" height="20" as="geometry" />
        </mxCell>
        <mxCell id="KXMMiSo6xPN748hezw-T-8" value="&lt;font style=&quot;font-size: 14px;&quot;&gt;DNS Server&lt;/font&gt;" style="text;html=1;align=center;verticalAlign=middle;whiteSpace=wrap;rounded=0;" vertex="1" parent="1">
          <mxGeometry x="140.5" y="285" width="60" height="30" as="geometry" />
        </mxCell>
        <mxCell id="KXMMiSo6xPN748hezw-T-9" value="&lt;font style=&quot;font-size: 14px;&quot;&gt;Internet&lt;/font&gt;" style="text;html=1;align=center;verticalAlign=middle;whiteSpace=wrap;rounded=0;" vertex="1" parent="1">
          <mxGeometry x="275" y="265" width="60" height="30" as="geometry" />
        </mxCell>
        <mxCell id="KXMMiSo6xPN748hezw-T-10" value="&lt;font style=&quot;font-size: 14px;&quot;&gt;Servers&lt;/font&gt;" style="text;html=1;align=center;verticalAlign=middle;whiteSpace=wrap;rounded=0;" vertex="1" parent="1">
          <mxGeometry x="530" y="450" width="60" height="20" as="geometry" />
        </mxCell>
        <mxCell id="KXMMiSo6xPN748hezw-T-11" value="&lt;font style=&quot;font-size: 14px;&quot;&gt;Databases&lt;/font&gt;" style="text;html=1;align=center;verticalAlign=middle;whiteSpace=wrap;rounded=0;" vertex="1" parent="1">
          <mxGeometry x="775" y="445" width="60" height="30" as="geometry" />
        </mxCell>
        <mxCell id="KXMMiSo6xPN748hezw-T-14" value="" style="sketch=0;pointerEvents=1;shadow=0;dashed=0;html=1;strokeColor=none;fillColor=#005F4B;labelPosition=center;verticalLabelPosition=bottom;verticalAlign=top;align=center;outlineConnect=0;shape=mxgraph.veeam2.globe;" vertex="1" parent="1">
          <mxGeometry x="270" y="190" width="70" height="70" as="geometry" />
        </mxCell>
        <mxCell id="KXMMiSo6xPN748hezw-T-15" value="&lt;font style=&quot;font-size: 14px; font-weight: normal;&quot;&gt;Load Balancer&lt;/font&gt;" style="sketch=0;outlineConnect=0;fontColor=#232F3E;gradientColor=none;strokeColor=#ffffff;fillColor=#232F3E;dashed=0;verticalLabelPosition=middle;verticalAlign=bottom;align=center;html=1;whiteSpace=wrap;fontSize=10;fontStyle=1;spacing=3;shape=mxgraph.aws4.productIcon;prIcon=mxgraph.aws4.application_load_balancer;" vertex="1" parent="1">
          <mxGeometry x="400" y="188.57999999999998" width="80" height="117.78" as="geometry" />
        </mxCell>
        <mxCell id="KXMMiSo6xPN748hezw-T-18" value="" style="image;html=1;image=img/lib/clip_art/computers/Server_Rack_128x128.png" vertex="1" parent="1">
          <mxGeometry x="520" y="360" width="80" height="80" as="geometry" />
        </mxCell>
        <mxCell id="KXMMiSo6xPN748hezw-T-19" value="" style="image;html=1;image=img/lib/clip_art/computers/Server_Rack_128x128.png" vertex="1" parent="1">
          <mxGeometry x="520" y="60" width="80" height="80" as="geometry" />
        </mxCell>
        <mxCell id="KXMMiSo6xPN748hezw-T-20" value="" style="image;html=1;image=img/lib/clip_art/computers/Server_Rack_128x128.png" vertex="1" parent="1">
          <mxGeometry x="520" y="260" width="80" height="80" as="geometry" />
        </mxCell>
        <mxCell id="KXMMiSo6xPN748hezw-T-23" value="&lt;font style=&quot;font-size: 14px; font-weight: normal;&quot;&gt;Load Balancer&lt;/font&gt;" style="sketch=0;outlineConnect=0;fontColor=#232F3E;gradientColor=none;strokeColor=#ffffff;fillColor=#232F3E;dashed=0;verticalLabelPosition=middle;verticalAlign=bottom;align=center;html=1;whiteSpace=wrap;fontSize=10;fontStyle=1;spacing=3;shape=mxgraph.aws4.productIcon;prIcon=mxgraph.aws4.application_load_balancer;" vertex="1" parent="1">
          <mxGeometry x="640" y="190" width="80" height="117.78" as="geometry" />
        </mxCell>
        <mxCell id="KXMMiSo6xPN748hezw-T-27" value="" style="image;html=1;image=img/lib/clip_art/computers/Database_128x128.png" vertex="1" parent="1">
          <mxGeometry x="770" y="60" width="70" height="65" as="geometry" />
        </mxCell>
        <mxCell id="KXMMiSo6xPN748hezw-T-28" value="" style="image;html=1;image=img/lib/clip_art/computers/Database_128x128.png" vertex="1" parent="1">
          <mxGeometry x="770" y="167.78" width="70" height="65" as="geometry" />
        </mxCell>
        <mxCell id="KXMMiSo6xPN748hezw-T-29" value="" style="image;html=1;image=img/lib/clip_art/computers/Database_128x128.png" vertex="1" parent="1">
          <mxGeometry x="770" y="267.5" width="70" height="65" as="geometry" />
        </mxCell>
        <mxCell id="KXMMiSo6xPN748hezw-T-30" value="" style="image;html=1;image=img/lib/clip_art/computers/Database_128x128.png" vertex="1" parent="1">
          <mxGeometry x="770" y="367.5" width="70" height="65" as="geometry" />
        </mxCell>
        <mxCell id="KXMMiSo6xPN748hezw-T-31" value="" style="endArrow=classic;startArrow=classic;html=1;rounded=0;entryX=-0.066;entryY=0.672;entryDx=0;entryDy=0;entryPerimeter=0;" edge="1" parent="1" target="KXMMiSo6xPN748hezw-T-1">
          <mxGeometry width="50" height="50" relative="1" as="geometry">
            <mxPoint x="84.06" y="317.5" as="sourcePoint" />
            <mxPoint x="134.06" y="267.5" as="targetPoint" />
          </mxGeometry>
        </mxCell>
        <mxCell id="KXMMiSo6xPN748hezw-T-32" value="" style="endArrow=classic;startArrow=classic;html=1;rounded=0;entryX=-0.066;entryY=0.569;entryDx=0;entryDy=0;entryPerimeter=0;" edge="1" parent="1" target="KXMMiSo6xPN748hezw-T-1">
          <mxGeometry width="50" height="50" relative="1" as="geometry">
            <mxPoint x="84" y="277" as="sourcePoint" />
            <mxPoint x="134.06" y="227.47" as="targetPoint" />
          </mxGeometry>
        </mxCell>
        <mxCell id="KXMMiSo6xPN748hezw-T-33" value="" style="endArrow=classic;startArrow=classic;html=1;rounded=0;entryX=0;entryY=0.5;entryDx=0;entryDy=0;entryPerimeter=0;" edge="1" parent="1" target="KXMMiSo6xPN748hezw-T-1">
          <mxGeometry width="50" height="50" relative="1" as="geometry">
            <mxPoint x="84.06" y="232.78" as="sourcePoint" />
            <mxPoint x="134.06" y="182.78" as="targetPoint" />
          </mxGeometry>
        </mxCell>
        <mxCell id="KXMMiSo6xPN748hezw-T-34" value="" style="endArrow=classic;startArrow=classic;html=1;rounded=0;entryX=0;entryY=0.399;entryDx=0;entryDy=0;entryPerimeter=0;" edge="1" parent="1" target="KXMMiSo6xPN748hezw-T-1">
          <mxGeometry width="50" height="50" relative="1" as="geometry">
            <mxPoint x="84.06" y="167.78" as="sourcePoint" />
            <mxPoint x="134.06" y="117.78" as="targetPoint" />
          </mxGeometry>
        </mxCell>
        <mxCell id="KXMMiSo6xPN748hezw-T-35" value="" style="endArrow=classic;startArrow=classic;html=1;rounded=0;exitX=1;exitY=0.5;exitDx=0;exitDy=0;exitPerimeter=0;" edge="1" parent="1" source="KXMMiSo6xPN748hezw-T-1">
          <mxGeometry width="50" height="50" relative="1" as="geometry">
            <mxPoint x="210" y="240" as="sourcePoint" />
            <mxPoint x="270" y="223" as="targetPoint" />
          </mxGeometry>
        </mxCell>
        <mxCell id="KXMMiSo6xPN748hezw-T-36" value="" style="endArrow=classic;startArrow=classic;html=1;rounded=0;exitX=1;exitY=0.5;exitDx=0;exitDy=0;exitPerimeter=0;" edge="1" parent="1">
          <mxGeometry width="50" height="50" relative="1" as="geometry">
            <mxPoint x="340" y="224.5" as="sourcePoint" />
            <mxPoint x="400" y="225" as="targetPoint" />
          </mxGeometry>
        </mxCell>
        <mxCell id="KXMMiSo6xPN748hezw-T-37" value="" style="endArrow=classic;startArrow=classic;html=1;rounded=0;entryX=-0.066;entryY=0.672;entryDx=0;entryDy=0;entryPerimeter=0;" edge="1" parent="1" source="KXMMiSo6xPN748hezw-T-18">
          <mxGeometry width="50" height="50" relative="1" as="geometry">
            <mxPoint x="584.06" y="323.75" as="sourcePoint" />
            <mxPoint x="636" y="248.25" as="targetPoint" />
          </mxGeometry>
        </mxCell>
        <mxCell id="KXMMiSo6xPN748hezw-T-38" value="" style="endArrow=classic;startArrow=classic;html=1;rounded=0;entryX=-0.066;entryY=0.569;entryDx=0;entryDy=0;entryPerimeter=0;" edge="1" parent="1">
          <mxGeometry width="50" height="50" relative="1" as="geometry">
            <mxPoint x="584" y="283.25" as="sourcePoint" />
            <mxPoint x="636" y="236.25" as="targetPoint" />
          </mxGeometry>
        </mxCell>
        <mxCell id="KXMMiSo6xPN748hezw-T-39" value="" style="endArrow=classic;startArrow=classic;html=1;rounded=0;exitX=0.75;exitY=0.375;exitDx=0;exitDy=0;exitPerimeter=0;" edge="1" parent="1" source="KXMMiSo6xPN748hezw-T-21" target="KXMMiSo6xPN748hezw-T-23">
          <mxGeometry width="50" height="50" relative="1" as="geometry">
            <mxPoint x="584.06" y="239.03" as="sourcePoint" />
            <mxPoint x="640" y="229.25" as="targetPoint" />
          </mxGeometry>
        </mxCell>
        <mxCell id="KXMMiSo6xPN748hezw-T-40" value="" style="endArrow=classic;startArrow=classic;html=1;rounded=0;entryX=0;entryY=0.399;entryDx=0;entryDy=0;entryPerimeter=0;exitX=0.875;exitY=0.375;exitDx=0;exitDy=0;exitPerimeter=0;" edge="1" parent="1" source="KXMMiSo6xPN748hezw-T-19">
          <mxGeometry width="50" height="50" relative="1" as="geometry">
            <mxPoint x="584.06" y="174.03" as="sourcePoint" />
            <mxPoint x="640" y="218.25" as="targetPoint" />
          </mxGeometry>
        </mxCell>
        <mxCell id="KXMMiSo6xPN748hezw-T-42" value="&lt;font style=&quot;font-size: 24px;&quot;&gt;Client-server architecture&lt;/font&gt;" style="text;html=1;align=center;verticalAlign=middle;resizable=0;points=[];autosize=1;strokeColor=none;fillColor=none;" vertex="1" parent="1">
          <mxGeometry x="175.31" y="10" width="290" height="40" as="geometry" />
        </mxCell>
        <mxCell id="KXMMiSo6xPN748hezw-T-43" value="" style="endArrow=classic;startArrow=classic;html=1;rounded=0;entryX=0.25;entryY=0.625;entryDx=0;entryDy=0;entryPerimeter=0;" edge="1" parent="1" source="KXMMiSo6xPN748hezw-T-15" target="KXMMiSo6xPN748hezw-T-19">
          <mxGeometry width="50" height="50" relative="1" as="geometry">
            <mxPoint x="500" y="220" as="sourcePoint" />
            <mxPoint x="530" y="138.57999999999998" as="targetPoint" />
          </mxGeometry>
        </mxCell>
        <mxCell id="KXMMiSo6xPN748hezw-T-45" value="" style="endArrow=classic;startArrow=classic;html=1;rounded=0;entryX=0.25;entryY=0.375;entryDx=0;entryDy=0;entryPerimeter=0;" edge="1" parent="1" target="KXMMiSo6xPN748hezw-T-21">
          <mxGeometry width="50" height="50" relative="1" as="geometry">
            <mxPoint x="480" y="225" as="sourcePoint" />
            <mxPoint x="530" y="175" as="targetPoint" />
          </mxGeometry>
        </mxCell>
        <mxCell id="KXMMiSo6xPN748hezw-T-46" value="" style="endArrow=classic;startArrow=classic;html=1;rounded=0;entryX=0.125;entryY=0.5;entryDx=0;entryDy=0;entryPerimeter=0;" edge="1" parent="1" target="KXMMiSo6xPN748hezw-T-20">
          <mxGeometry width="50" height="50" relative="1" as="geometry">
            <mxPoint x="480" y="240" as="sourcePoint" />
            <mxPoint x="530" y="190" as="targetPoint" />
          </mxGeometry>
        </mxCell>
        <mxCell id="KXMMiSo6xPN748hezw-T-47" value="" style="endArrow=classic;startArrow=classic;html=1;rounded=0;entryX=0.125;entryY=0.375;entryDx=0;entryDy=0;entryPerimeter=0;" edge="1" parent="1" target="KXMMiSo6xPN748hezw-T-18">
          <mxGeometry width="50" height="50" relative="1" as="geometry">
            <mxPoint x="480" y="260" as="sourcePoint" />
            <mxPoint x="530" y="210" as="targetPoint" />
          </mxGeometry>
        </mxCell>
        <mxCell id="KXMMiSo6xPN748hezw-T-48" value="" style="endArrow=classic;startArrow=classic;html=1;rounded=0;entryX=0.25;entryY=0.625;entryDx=0;entryDy=0;entryPerimeter=0;" edge="1" parent="1">
          <mxGeometry width="50" height="50" relative="1" as="geometry">
            <mxPoint x="720" y="190.89" as="sourcePoint" />
            <mxPoint x="780" y="108.89" as="targetPoint" />
          </mxGeometry>
        </mxCell>
        <mxCell id="KXMMiSo6xPN748hezw-T-49" value="" style="endArrow=classic;startArrow=classic;html=1;rounded=0;entryX=0.25;entryY=0.375;entryDx=0;entryDy=0;entryPerimeter=0;" edge="1" parent="1">
          <mxGeometry width="50" height="50" relative="1" as="geometry">
            <mxPoint x="720" y="223.89" as="sourcePoint" />
            <mxPoint x="780" y="188.89" as="targetPoint" />
          </mxGeometry>
        </mxCell>
        <mxCell id="KXMMiSo6xPN748hezw-T-50" value="" style="endArrow=classic;startArrow=classic;html=1;rounded=0;entryX=0.125;entryY=0.5;entryDx=0;entryDy=0;entryPerimeter=0;" edge="1" parent="1">
          <mxGeometry width="50" height="50" relative="1" as="geometry">
            <mxPoint x="720" y="238.89" as="sourcePoint" />
            <mxPoint x="770" y="298.89" as="targetPoint" />
          </mxGeometry>
        </mxCell>
        <mxCell id="KXMMiSo6xPN748hezw-T-51" value="" style="endArrow=classic;startArrow=classic;html=1;rounded=0;entryX=0.125;entryY=0.375;entryDx=0;entryDy=0;entryPerimeter=0;" edge="1" parent="1">
          <mxGeometry width="50" height="50" relative="1" as="geometry">
            <mxPoint x="720" y="258.89" as="sourcePoint" />
            <mxPoint x="770" y="388.89" as="targetPoint" />
          </mxGeometry>
        </mxCell>
      </root>
    </mxGraphModel>
  </diagram>
</mxfile>
